<svg xmlns="http://www.w3.org/2000/svg" width="119" height="40" viewBox="0 0 119 40">
    <g fill="none">
        <path fill="#A6A6A6" d="M108.723 0H9.413c-.363 0-.72 0-1.081.002-.302.002-.602.008-.907.013C6.762.022 6.1.08 5.446.189c-.653.11-1.285.32-1.876.619-.59.302-1.13.695-1.598 1.163-.471.468-.864 1.008-1.163 1.6-.3.592-.508 1.226-.617 1.88-.11.653-.17 1.314-.177 1.976-.01.303-.01.606-.015.91v22.817c.005.307.006.603.015.91.008.662.067 1.323.177 1.976.108.655.317 1.289.617 1.88.299.59.692 1.129 1.163 1.594.467.47 1.006.864 1.598 1.163.59.3 1.223.51 1.876.623.654.108 1.316.166 1.979.175.305.006.605.01.907.01.36.002.718.002 1.08.002h99.31c.356 0 .716 0 1.07-.002.302 0 .61-.004.911-.01.662-.009 1.322-.067 1.974-.175.656-.113 1.29-.323 1.884-.623.591-.3 1.13-.692 1.597-1.163.47-.467.863-1.005 1.166-1.594.298-.592.504-1.226.611-1.88.11-.653.171-1.314.183-1.976.004-.307.004-.603.004-.91.008-.359.008-.715.008-1.08V9.414c0-.362 0-.72-.008-1.078 0-.303 0-.606-.004-.909-.012-.662-.073-1.323-.183-1.976-.107-.654-.313-1.288-.611-1.88-.61-1.187-1.576-2.153-2.763-2.763-.594-.299-1.228-.508-1.884-.62-.652-.108-1.312-.166-1.974-.174-.3-.004-.61-.01-.91-.012-.355-.002-.715-.002-1.07-.002z"/>
        <path fill="#000" d="M8.337 38.623c-.301 0-.595-.003-.893-.01-.618-.008-1.235-.062-1.845-.161-.57-.098-1.12-.28-1.636-.541-.51-.258-.976-.597-1.379-1.004-.409-.401-.749-.867-1.007-1.378-.262-.515-.442-1.067-.536-1.636-.102-.612-.157-1.23-.165-1.851-.006-.208-.014-.902-.014-.902V8.336s.009-.682.014-.883c.008-.62.062-1.237.164-1.848.094-.571.275-1.124.536-1.64.258-.512.596-.978 1.002-1.38.406-.408.873-.748 1.385-1.01.514-.26 1.064-.441 1.632-.537.612-.1 1.231-.154 1.851-.162l.891-.012h101.451l.901.012c.615.008 1.228.061 1.835.16.574.098 1.13.28 1.65.542 1.024.528 1.858 1.363 2.384 2.389.257.512.435 1.061.528 1.627.102.616.16 1.239.171 1.863.003.28.003.58.003.88.008.37.008.722.008 1.077v20.66c0 .359 0 .709-.008 1.062 0 .32 0 .615-.004.917-.011.614-.067 1.225-.168 1.83-.092.574-.272 1.13-.533 1.649-.26.506-.599.967-1.003 1.368-.403.408-.87.749-1.381 1.01-.519.262-1.074.445-1.647.542-.61.1-1.227.153-1.845.16-.29.008-.592.011-.886.011l-1.07.002-100.386-.002z"/>
        <path fill="#FFF" d="M41.76 26.792h-4.673l-1.122 3.313h-1.98l4.427-12.259h2.056l4.426 12.26h-2.013l-1.121-3.314zm-4.189-1.53h3.704l-1.826-5.377h-.05l-1.828 5.378zm16.882.375c0 2.777-1.487 4.562-3.73 4.562-1.16.06-2.252-.547-2.812-1.564h-.043v4.427h-1.834V21.167h1.775v1.487h.034c.585-1.01 1.679-1.618 2.846-1.58 2.268 0 3.764 1.793 3.764 4.563zm-1.886 0c0-1.81-.935-3-2.362-3-1.402 0-2.345 1.215-2.345 3 0 1.8.943 3.007 2.345 3.007 1.427 0 2.362-1.181 2.362-3.007zm11.723 0c0 2.777-1.487 4.562-3.73 4.562-1.16.06-2.252-.547-2.812-1.564h-.043v4.427h-1.834V21.167h1.775v1.487h.034c.585-1.01 1.679-1.618 2.846-1.58 2.268 0 3.764 1.793 3.764 4.563zm-1.886 0c0-1.81-.935-3-2.362-3-1.402 0-2.345 1.215-2.345 3 0 1.8.943 3.007 2.345 3.007 1.427 0 2.362-1.181 2.362-3.007zm8.387 1.053c.136 1.215 1.317 2.013 2.93 2.013 1.547 0 2.66-.798 2.66-1.894 0-.952-.671-1.521-2.26-1.912l-1.589-.382c-2.25-.544-3.296-1.597-3.296-3.305 0-2.115 1.843-3.568 4.46-3.568 2.591 0 4.367 1.453 4.427 3.568H76.27c-.111-1.224-1.122-1.962-2.6-1.962s-2.49.747-2.49 1.835c0 .866.646 1.376 2.226 1.767l1.351.331c2.515.595 3.56 1.605 3.56 3.399 0 2.293-1.827 3.73-4.732 3.73-2.719 0-4.554-1.403-4.673-3.62h1.878zm11.487-7.638v2.115h1.7v1.453h-1.7v4.928c0 .765.34 1.122 1.087 1.122.202-.004.403-.018.604-.043v1.444c-.336.063-.678.092-1.02.085-1.809 0-2.515-.68-2.515-2.413V22.62h-1.3v-1.453h1.3v-2.115h1.844zm2.684 6.585c0-2.812 1.656-4.58 4.239-4.58 2.59 0 4.24 1.768 4.24 4.58 0 2.82-1.64 4.579-4.24 4.579-2.6 0-4.24-1.76-4.24-4.58zm6.61 0c0-1.93-.885-3.068-2.372-3.068-1.486 0-2.37 1.147-2.37 3.068 0 1.937.884 3.066 2.37 3.066 1.487 0 2.371-1.13 2.371-3.066zm3.38-4.47h1.75v1.522h.043c.244-.98 1.141-1.654 2.15-1.615.211 0 .422.022.628.068v1.716c-.266-.081-.545-.119-.824-.11-.54-.022-1.061.193-1.429.588-.367.395-.544.932-.483 1.468v5.301h-1.834v-8.938zm13.03 6.313c-.247 1.623-1.827 2.736-3.849 2.736-2.6 0-4.213-1.742-4.213-4.537 0-2.803 1.622-4.621 4.136-4.621 2.473 0 4.028 1.698 4.028 4.408v.629h-6.312v.11c-.06.666.17 1.325.63 1.809.46.484 1.106.748 1.774.723.89.084 1.73-.428 2.064-1.257h1.742zm-6.202-2.667h4.469c.033-.598-.185-1.183-.6-1.614-.417-.43-.994-.668-1.593-.655-.603-.003-1.183.234-1.61.66-.428.426-.667 1.005-.666 1.609zM37.341 8.62c.78-.057 1.542.24 2.079.806.537.567.791 1.345.693 2.12 0 1.882-1.017 2.963-2.772 2.963h-2.127V8.62h2.127zm-1.213 5.056h1.111c.557.034 1.099-.186 1.475-.597.377-.41.549-.97.468-1.521.075-.55-.1-1.104-.475-1.511-.376-.408-.914-.626-1.468-.596h-1.11v4.225zm5.018-1.391c-.076-.797.306-1.568.986-1.99.68-.422 1.54-.422 2.221 0 .68.422 1.062 1.193.986 1.99.078.797-.304 1.57-.985 1.993-.68.423-1.542.423-2.223 0-.68-.423-1.062-1.196-.985-1.993zm3.29 0c0-.964-.432-1.527-1.192-1.527-.762 0-1.191.563-1.191 1.527 0 .971.429 1.53 1.191 1.53.76 0 1.193-.563 1.193-1.53zm6.476 2.224h-.91l-.919-3.274h-.07L48.1 14.51h-.901l-1.226-4.445h.89l.796 3.392h.066l.914-3.392h.842l.913 3.392h.07l.792-3.392h.878l-1.22 4.445zm2.251-4.445h.845v.706h.065c.228-.52.76-.838 1.327-.792.438-.033.867.135 1.166.457.3.322.437.762.372 1.197v2.877h-.877v-2.657c0-.714-.31-1.07-.96-1.07-.296-.014-.585.103-.789.32-.204.216-.303.511-.272.807v2.6h-.877v-4.445zm5.173-1.735h.877v6.18h-.877V8.33zm2.097 3.956c-.076-.797.306-1.568.986-1.99.68-.422 1.54-.422 2.22 0 .681.422 1.063 1.193.987 1.99.078.797-.304 1.57-.985 1.993-.68.423-1.542.423-2.223 0-.68-.423-1.063-1.196-.985-1.993zm3.29 0c0-.964-.433-1.527-1.192-1.527-.763 0-1.192.563-1.192 1.527 0 .971.43 1.53 1.192 1.53.76 0 1.192-.563 1.192-1.53zm1.827.967c0-.8.595-1.261 1.653-1.327l1.204-.07v-.383c0-.47-.31-.734-.91-.734-.49 0-.83.18-.926.494h-.85c.09-.764.808-1.254 1.816-1.254 1.115 0 1.743.555 1.743 1.494v3.037h-.844v-.624h-.07c-.286.456-.796.722-1.335.698-.377.039-.753-.083-1.036-.337-.282-.253-.444-.614-.445-.994zm2.857-.38v-.371l-1.085.07c-.613.04-.89.248-.89.64 0 .4.347.633.824.633.283.029.565-.059.782-.242.216-.183.35-.446.369-.73zm2.026-.587c0-1.405.723-2.295 1.846-2.295.567-.026 1.098.278 1.363.78h.065V8.33h.878v6.18h-.841v-.702h-.07c-.284.498-.822.797-1.395.776-1.131 0-1.846-.89-1.846-2.298zm.907 0c0 .943.444 1.51 1.187 1.51.74 0 1.197-.576 1.197-1.506 0-.927-.462-1.51-1.197-1.51-.738 0-1.187.57-1.187 1.506zm6.874 0c-.076-.797.306-1.568.986-1.99.68-.422 1.54-.422 2.22 0 .681.422 1.063 1.193.987 1.99.078.797-.304 1.57-.985 1.993-.68.423-1.542.423-2.223 0-.68-.423-1.062-1.196-.985-1.993zm3.29 0c0-.964-.432-1.527-1.192-1.527-.763 0-1.192.563-1.192 1.527 0 .971.43 1.53 1.192 1.53.76 0 1.192-.563 1.192-1.53zm2.08-2.22h.844v.705h.066c.228-.52.76-.838 1.327-.792.438-.033.867.135 1.166.457.3.322.436.762.372 1.197v2.877h-.877v-2.657c0-.714-.31-1.07-.96-1.07-.297-.014-.585.103-.789.32-.204.216-.303.511-.272.807v2.6h-.877v-4.445zm8.732-1.108v1.127h.963v.74h-.963v2.285c0 .466.192.67.629.67.112 0 .223-.008.334-.02v.73c-.157.028-.317.043-.477.045-.975 0-1.364-.343-1.364-1.2v-2.51h-.706v-.74h.706V8.957h.878zm2.162-.628h.87v2.45h.069c.239-.525.78-.843 1.355-.797.436-.024.86.148 1.155.469.296.32.434.756.376 1.188v2.87h-.878v-2.653c0-.71-.331-1.07-.95-1.07-.306-.025-.607.086-.822.303-.216.218-.325.52-.298.824v2.596h-.877V8.33zm8.94 4.98c-.246.839-1.057 1.38-1.926 1.286-.593.016-1.162-.23-1.558-.672-.395-.442-.576-1.035-.495-1.622-.08-.59.101-1.184.494-1.63.394-.445.96-.698 1.555-.693 1.237 0 1.983.845 1.983 2.241v.306h-3.139v.05c-.028.33.085.656.31.898.226.243.543.379.874.375.43.051.847-.161 1.058-.539h.844zm-3.086-1.432h2.245c.023-.302-.083-.6-.292-.819-.208-.219-.5-.34-.802-.333-.306-.004-.601.116-.818.333-.217.217-.337.512-.333.819zM24.451 20.04c.022-1.674.9-3.221 2.327-4.098-.905-1.292-2.365-2.081-3.94-2.13-1.658-.174-3.265.992-4.11.992-.86 0-2.162-.975-3.562-.946-1.843.06-3.52 1.082-4.416 2.693-1.909 3.305-.485 8.163 1.344 10.835.915 1.308 1.985 2.77 3.384 2.718 1.37-.057 1.88-.873 3.533-.873 1.638 0 2.118.873 3.545.84 1.47-.024 2.395-1.314 3.278-2.635.658-.932 1.164-1.963 1.5-3.053-1.746-.738-2.88-2.448-2.883-4.343zm-2.696-7.986c.8-.961 1.196-2.198 1.1-3.446-1.224.129-2.355.714-3.167 1.639-.801.912-1.207 2.106-1.129 3.318 1.24.013 2.418-.544 3.196-1.51z"/>
    </g>
</svg>
