<svg width="37" height="37" viewBox="0 0 37 37" fill="none" xmlns="http://www.w3.org/2000/svg">
<path d="M18.4987 3.08325C9.98407 3.08325 3.08203 9.98529 3.08203 18.4999C3.08203 27.0145 9.98407 33.9166 18.4987 33.9166C27.0133 33.9166 33.9154 27.0145 33.9154 18.4999C33.9154 9.98529 27.0133 3.08325 18.4987 3.08325Z" fill="url(#paint0_linear_217_21552)"/>
<path d="M20.586 22.5861H24.5758L25.2025 18.5331H20.586V16.3177C20.586 14.6342 21.1363 13.1411 22.7112 13.1411H25.2418V9.6045C24.797 9.54437 23.8566 9.41333 22.0798 9.41333C18.3691 9.41333 16.1938 11.3728 16.1938 15.8375V18.5338H12.3789V22.5869H16.193V33.727C16.9484 33.8395 17.7138 33.9166 18.4993 33.9166C19.2093 33.9166 19.9022 33.8518 20.586 33.7593V22.5861Z" fill="white"/>
<defs>
<linearGradient id="paint0_linear_217_21552" x1="7.70163" y1="7.70286" x2="31.3061" y2="31.3073" gradientUnits="userSpaceOnUse">
<stop stop-color="#2AA4F4"/>
<stop offset="1" stop-color="#007AD9"/>
</linearGradient>
</defs>
</svg>
