<?xml version="1.0" encoding="UTF-8"?>
<svg width="75px" height="24px" viewBox="0 0 75 24" version="1.1" xmlns="http://www.w3.org/2000/svg" xmlns:xlink="http://www.w3.org/1999/xlink">
    <title>21CE2CC1-105A-4A72-9FE3-C1EF6813E9D6</title>
    <g id="Design" stroke="none" stroke-width="1" fill="none" fill-rule="evenodd">
        <g id="Web-Falaya---Thank-you-page" transform="translate(-180.000000, -1867.000000)" fill="#47BFBA">
            <g id="Group-5" transform="translate(140.000000, 1674.000000)">
                <g id="Group-23" transform="translate(0.000000, 153.000000)">
                    <path d="M112.318053,63.9997365 C112.025951,63.9997365 111.728679,63.9510786 111.436361,63.8487667 L78.143408,52.5362453 C77.7259348,52.3943989 77.2739952,52.3943989 76.856522,52.5362453 L43.5129464,63.8657101 C42.1015507,64.3292633 40.5936494,63.5542128 40.1326624,62.1337939 C39.674045,60.7146783 40.4426439,59.1886891 41.850162,58.725136 L76.55925,40.2353608 C77.1477623,39.9216913 77.8521676,39.921474 78.4408954,40.2351436 L113.199744,58.7420793 C114.597784,59.2343059 115.337086,60.7748489 114.85025,62.184624 C114.464873,63.2996279 113.427006,63.9997365 112.318053,63.9997365" id="Falaya"></path>
                </g>
            </g>
        </g>
    </g>
</svg>