<svg version="1.2" xmlns="http://www.w3.org/2000/svg" viewBox="0 0 546 524" width="546" height="524">
	<title>undraw_transfer_money_re_6o1h-svg</title>
	<style>
		tspan { white-space:pre } 
		.s0 { fill: #f2f2f2 } 
		.s1 { fill: #cccccc } 
		.s2 { fill: #3f3d56 } 
		.s3 { fill: #ffffff } 
		.s4 { fill: #e6e6e6 } 
		.s5 { fill: #00bfff } 
		.s6 { fill: #ffb6b6 } 
		.s7 { fill: #2f2e41 } 
		.s8 { fill: #ffb7b7 } 
		.t9 { font-size: 39px;fill: #ffffff;font-weight: 400;font-family: "DejaVuSans", "DejaVu Sans" } 
		.t10 { font-size: 61px;fill: #ffffff;font-weight: 400;font-family: "DejaVuSans", "DejaVu Sans" } 
	</style>
	<path id="Layer" class="s0" d="m491.3 507.2c2.1 0.1 3.2-2.5 1.6-4l-0.1-0.6q0-0.1 0.1-0.1c2-5 9.1-5 11.2 0 1.8 4.4 4.2 8.9 4.8 13.6 0.2 2 0.1 4.1-0.4 6.2 4.3-9.5 6.6-19.7 6.6-30.1q0-3.9-0.4-7.7-0.4-3.2-1-6.4c-2.3-11.2-7.3-22-14.5-30.9-3.5-1.9-6.4-4.9-8.1-8.4-0.6-1.3-1.1-2.7-1.4-4.1 0.4 0.1 1.5-5.9 1.2-6.3 0.6-0.9 1.6-1.3 2.2-2.1 2.9-4 7.1-3.3 9.2 2.2 4.6 2.3 4.6 6.1 1.8 9.8-1.8 2.4-2 5.5-3.6 8.1q0.3 0.3 0.5 0.6c3 3.8 5.5 7.8 7.7 12.1-0.6-4.7 0.3-10.5 1.8-14.2 1.8-4.2 5-7.7 7.9-11.4 3.5-4.4 10.6-2.5 11.2 3.1q0 0.1 0 0.2-0.6 0.3-1.2 0.7c-2.4 1.6-1.6 5.2 1.2 5.6h0.1q-0.3 2.4-0.8 4.6c3.7 14.3-4.3 19.5-15.7 19.8q-0.4 0.2-0.8 0.4 1.7 4.9 2.8 9.9 0.9 4.5 1.2 9.1 0.5 5.7 0 11.5v-0.1c0.8-4.3 3.1-8.2 6.4-10.9 5-4.1 12-5.6 17.3-8.8 2.6-1.6 5.9 0.4 5.4 3.4v0.1q-1.2 0.5-2.3 1.2-0.7 0.3-1.3 0.7c-2.3 1.6-1.5 5.2 1.3 5.6q0.1 0 0.2 0.1c-1.4 3.2-3.3 6.2-5.7 8.8-2.3 12.5-12.2 13.7-22.9 10-1.1 5.1-2.8 10-5 14.8h-18q-0.1-0.3-0.2-0.7 2.5 0.2 5-0.2-2-2.5-4-5-0.1 0-0.1-0.1-1.1-1.2-2.1-2.5c0-2.6 0.3-5.1 0.9-7.6z"/>
	<path id="Layer" class="s1" d="m160.9 521.1h383.3c0.7 0 1.2 0.6 1.2 1.2 0 0.7-0.5 1.2-1.2 1.2h-383.3c-0.6 0-1.1-0.5-1.1-1.2 0-0.6 0.5-1.2 1.1-1.2z"/>
	<g id="Layer">
		<path id="Layer" class="s2" d="m217.9 523h-176.4c-21.5 0-39-17.5-39-39v-379.2c0-21.5 17.5-39 39-39h176.4c21.5 0 39 17.5 39 39v379.2c0 21.5-17.5 39-39 39z"/>
		<path id="Layer" class="s2" d="m258.6 206.9v52.8c0 1-0.8 1.7-1.7 1.7-0.9 0-1.6-0.7-1.6-1.7v-52.8c0-0.9 0.7-1.6 1.6-1.6 0.9 0 1.7 0.7 1.7 1.6z"/>
		<path id="Layer" class="s3" d="m253.2 104.8v379.2c0 18.7-14.6 34-33 35.2q-0.4 0-0.8 0-0.7 0.1-1.5 0.1c0 0-1.8-0.2-5.1-0.4-3.4-0.3-8.3-0.6-14.3-1.1q-2.8-0.2-5.8-0.5c-4.1-0.3-8.5-0.7-13.3-1.1q-2.8-0.2-5.8-0.5c-10.3-0.9-21.7-1.9-33.9-3.1q-3-0.3-6.1-0.6-0.9 0-1.7-0.1c-8.6-0.9-125.7-23.5-125.7-27.9v-379.2c0-19.5 15.8-35.3 35.3-35.3h21.1c3.3 0 6 2.7 6.3 6q0.1 0.3 0.1 0.7c0.6 3.4 3.7 5.7 7.2 5.7h107c3.5 0 6.6-2.3 7.2-5.7q0-0.4 0.1-0.7c0.3-3.3 3-6 6.3-6h21.1c19.5 0 35.3 15.8 35.3 35.3z"/>
		<path id="Layer" class="s2" d="m3.3 167.3v13.2c0 0.9-0.7 1.7-1.6 1.7-1 0-1.7-0.8-1.7-1.7v-13.2c0-0.9 0.7-1.6 1.7-1.6 0.9 0 1.6 0.7 1.6 1.6z"/>
		<path id="Layer" class="s2" d="m3.3 206.9v25.6c0 0.9-0.7 1.7-1.6 1.7-1 0-1.7-0.8-1.7-1.7v-25.6c0-0.9 0.7-1.6 1.7-1.6 0.9 0 1.6 0.7 1.6 1.6z"/>
		<path id="Layer" class="s2" d="m3.3 243.2v25.6c0 0.9-0.7 1.7-1.6 1.7-1 0-1.7-0.8-1.7-1.7v-25.6c0-0.9 0.7-1.6 1.7-1.6 0.9 0 1.6 0.7 1.6 1.6z"/>
		<path id="Layer" class="s4" d="m30.1 75.6c0-0.2 0.2-0.3 0.3-0.3h31.6c0.2 0 0.3 0.1 0.3 0.3v3.5c0 0.2-0.1 0.3-0.3 0.3h-31.6c-0.1 0-0.3-0.1-0.3-0.3z"/>
		<path id="Layer" class="s4" d="m202 79.4c-1.8 0-3.3-1.4-3.3-3.3 0-1.8 1.5-3.3 3.3-3.3 1.9 0 3.4 1.5 3.4 3.3 0 1.9-1.5 3.3-3.4 3.3z"/>
		<path id="Layer" class="s4" d="m211.1 79.4c-1.8 0-3.3-1.4-3.3-3.3 0-1.8 1.5-3.3 3.3-3.3 1.9 0 3.3 1.5 3.3 3.3 0 1.9-1.4 3.3-3.3 3.3z"/>
		<path id="Layer" class="s4" d="m220.2 79.4c-1.8 0-3.3-1.4-3.3-3.3 0-1.8 1.5-3.3 3.3-3.3 1.8 0 3.3 1.5 3.3 3.3 0 1.9-1.5 3.3-3.3 3.3z"/>
	</g>
	<path id="Layer" class="s4" d="m199.3 298.5h-140c-2.2 0-4-1.8-4-4 0-2.2 1.8-4 4-4h140c2.2 0 4 1.8 4 4 0 2.2-1.8 4-4 4z"/>
	<path id="Layer" class="s5" d="m129.8 453.5c-32.1 0-58-25.9-58-58 0-32.1 25.9-58 58-58 32.1 0 58 25.9 58 58 0 32.1-25.9 58-58 58z"/>
	<path id="Layer" class="s3" d="m456.1 19v196c0 10.5-8.5 19-19 19h-286c-10.5 0-19-8.5-19-19v-196c0-10.5 8.5-19 19-19h286c10.5 0 19 8.5 19 19z"/>
	<path id="Layer" class="s5" d="m292.8 116.5c-17.7 0-32-14.3-32-32 0-17.7 14.3-32 32-32 17.7 0 32 14.3 32 32 0 17.7-14.3 32-32 32z"/>
	<path id="Layer" fill-rule="evenodd" class="s2" d="m456.1 19v196c0 10.5-8.5 19-19 19h-286c-10.5 0-19-8.5-19-19v-196c0-10.5 8.5-19 19-19h286c10.5 0 19 8.5 19 19zm-2 0c0-9.4-7.6-17-17-17h-286c-9.4 0-17 7.6-17 17v196c0 9.4 7.6 17 17 17h286c9.4 0 17-7.6 17-17z"/>
	<g id="Layer">
		<path id="Layer" class="s4" d="m263.7 21.9c0 1.4-1.2 2.6-2.6 2.6h-28c-1.4 0-2.6-1.2-2.6-2.6 0-1.4 1.2-2.6 2.6-2.6h28c1.4 0 2.6 1.2 2.6 2.6z"/>
		<path id="Layer" class="s4" d="m310.7 21.9c0 1.4-1.2 2.6-2.6 2.6h-28c-1.4 0-2.6-1.2-2.6-2.6 0-1.4 1.2-2.6 2.6-2.6h28c1.4 0 2.6 1.2 2.6 2.6z"/>
		<path id="Layer" class="s4" d="m357.7 21.9c0 1.4-1.2 2.6-2.6 2.6h-28c-1.4 0-2.6-1.2-2.6-2.6 0-1.4 1.2-2.6 2.6-2.6h28c1.4 0 2.6 1.2 2.6 2.6z"/>
	</g>
	<path id="Layer" class="s5" d="m417.6 150.7v14.6c0 9-7.3 16.2-16.2 16.2h-214.6c-8.9 0-16.2-7.2-16.2-16.2v-14.6c0-8.9 7.3-16.2 16.2-16.2h214.6c8.9 0 16.2 7.3 16.2 16.2z"/>
	<path id="Layer" class="s2" d="m123.8 164.5v2c-23.1 0-43.3 18.9-48.6 45.1l8.7-2.2c-4.2 4-8.5 10.7-11.1 16.1-1.6-5.8-4.5-13.2-7.9-17.9l8.3 3.9c5.5-27.3 26.5-47 50.6-47z"/>
	<path id="Layer" class="s4" d="m111.1 251.5h-52c-2.2 0-4-1.8-4-4 0-2.2 1.8-4 4-4h52c2.2 0 4 1.8 4 4 0 2.2-1.8 4-4 4z"/>
	<g id="Layer">
		<path id="Layer" class="s6" d="m457 238.5l-0.5 40.8-10.2 36.4-8.1-3 3.6-33.4-0.5-45.1 15.7 4.3z"/>
		<path id="Layer" class="s6" d="m446.3 321.6c-1 5.2-4.3 9-7.4 8.5-3.1-0.6-4.9-5.3-3.9-10.5 1-5.3 4.2-9.1 7.4-8.5 3.1 0.6 4.8 5.3 3.9 10.5z"/>
		<path id="Layer" class="s4" d="m444.6 189.9c0 0 17.5 0.2 17.4 9.4 0 5.3-1.1 52.7-4.2 81.5-2.4 22.2-7 28-7 28l-11-25z"/>
		<path id="Layer" class="s6" d="m444.2 273.3h-58.8c4.9-11 8-21.5 3.2-29.8l55.6-3.2c-2.8 11.2-3.1 22.3 0 33z"/>
		<path id="Layer" class="s4" d="m441.8 187.1l16.1 6.4-13.4 56.4-55.8-4-1.9-43.3c-0.3-7.5 4.9-14 12.2-15.4l4.9-0.9 9.7-12.1 23.4 1.7c0 0 4.8 11.2 4.8 11.2z"/>
		<g id="Layer">
			<path id="Layer" class="s6" d="m294.5 188.9c1.7 1.5 2.9 3.3 3.5 4.9l16.7 13.2-6.5 7.8-16.3-14.2c-1.7-0.5-3.6-1.5-5.2-3-3.8-3.4-5.1-8.1-2.9-10.5 2.1-2.4 6.9-1.6 10.7 1.8z"/>
			<path id="Layer" class="s4" d="m412.5 200l-63.9 43.2-45.9-31.9 6.9-12.4 36.1 20.9 33.2-25.5c11.9-11.1 26.7-9 33.6 5.7z"/>
		</g>
		<path id="Layer" class="s6" d="m423.9 170.6c-9.6 0-17.3-7.7-17.3-17.3 0-9.6 7.7-17.3 17.3-17.3 9.6 0 17.3 7.7 17.3 17.3 0 9.6-7.7 17.3-17.3 17.3z"/>
		<path id="Layer" class="s7" d="m447.4 149v3.4l-19.5-5.5-14.6 3.1c-0.2-2.3-0.9-4.4-2-6.4 0.8 3.1 0.9 5.5 0.1 6.8l-2 0.4c-0.3-0.9-0.9-1.6-1.8-2.1 0-0.1-0.1-0.1-0.2-0.1-0.2 0.1-0.2 0.3-0.2 0.4q0 1.1 0.1 2.2l-5.7 1.2v-3.4c-5.4-12.2 8.9-22.7 22.9-22.9 6.4 0 12.1 2.6 16.2 6.7 4.2 4.2 6.7 9.9 6.7 16.2z"/>
		<path id="Layer" class="s7" d="m458.4 188.4l-1.4-0.1q0.1-0.7 0.3-1.4c0.8-4.1-1-9.2-1.2-13.1-0.6 4.1 0.5 9.2-0.7 13.1-0.1 0.4-5.5 3.2-5.6 3.6-5.9-2.1-12.1-9.1-19-5-4.2 2.4-8.9 1.3-13.5 0.2-1.2-0.2-1.4-6-2.5-6.2-2.1-0.4-5.1 4.8-7 5l8-31c0-16.8-1.6-34.5 19.8-28.6 5.4 1.5 10.7 2.7 14.6 7.1 4 4.5 6.8 10.7 7.8 17.7 0.6 4.3 4.4 18.8 0.4 38.7z"/>
		<g id="Layer">
			<path id="Layer" class="s8" d="m444.6 500.2l-9.5 0.2-5.3-42.8 14.1-0.4 0.7 43z"/>
			<path id="Layer" class="s7" d="m411.9 520.1c0-1.2 0.6-2.2 1.6-2.7l10.5-5.2 7.1-16.6 0.1-16.7 14.8-1.8 2.1 10.7c0 0-4.4-0.7 1.1 4 5.4 4.8 2.8 14 2.8 14l1.1 17.2h-9.7l-0.5-10.7c-7.6 3.2-9.5 10.7-9.5 10.7h-18.9c-1.4 0-2.6-1.3-2.6-2.9q0 0 0 0z"/>
		</g>
		<g id="Layer">
			<path id="Layer" class="s8" d="m415.6 493.2l-9.1 2.6-16.1-40.1 13.6-3.9 11.6 41.4z"/>
			<path id="Layer" class="s7" d="m389 520.7c-0.3-1.1 0-2.3 0.8-2.9l8.9-7.7 2.7-17.9-4.2-16.2 13.9-5.4 4.8 9.7c0 0-4.5 0.5 2 3.7 6.4 3.2 6.2 12.7 6.2 12.7l5.5 16.4-9.4 2.5-3.2-10.2c-6.6 5-6.5 12.7-6.5 12.7l-18.3 4.8c-1.3 0.4-2.8-0.6-3.2-2.2q0 0 0 0z"/>
		</g>
		<path id="Layer" class="s7" d="m438.8 270.8l6 2c9.4 17.3 13.3 40.3 12.8 68l-10.6 124.7h-17.5l-12.7-138.9-22.5 52.1 16.4 86.8-16.4 1.6-33.2-90.1 23.1-104.8c0 0 54.6-1.4 54.6-1.4z"/>
	</g>
	<text id="₹" style="transform: matrix(1,0,0,1,279,100)" >
		<tspan x="0" y="0" class="t9">₹
</tspan>
	</text>
	<text id="₹" style="transform: matrix(1,0,0,1,108,418)" >
		<tspan x="0" y="0" class="t10">₹
</tspan>
	</text>
	<text id="" style="transform: matrix(1,0,0,1,131,369)" >
	</text>
</svg>