<svg width="37" height="37" viewBox="0 0 37 37" fill="none" xmlns="http://www.w3.org/2000/svg">
<mask id="mask0_403_78" style="mask-type:alpha" maskUnits="userSpaceOnUse" x="2" y="2" width="33" height="33">
<circle cx="18.5" cy="18.5" r="16" fill="#D9D9D9"/>
</mask>
<g mask="url(#mask0_403_78)">
<path d="M18.4949 2.5C11.815 2.5 9.86145 2.50689 9.4817 2.5384C8.11088 2.65238 7.25787 2.86828 6.32857 3.33109C5.6124 3.68681 5.04758 4.09915 4.49015 4.67717C3.47496 5.73129 2.85969 7.02814 2.63696 8.56968C2.52867 9.31805 2.49717 9.47068 2.49077 13.2933C2.48831 14.5675 2.49077 16.2444 2.49077 18.4937C2.49077 25.17 2.49815 27.1221 2.53015 27.5013C2.6409 28.8355 2.85009 29.675 3.29308 30.5932C4.13969 32.3509 5.75662 33.6704 7.66149 34.1627C8.32106 34.3326 9.04954 34.4261 9.98475 34.4705C10.381 34.4877 14.4196 34.5 18.4607 34.5C22.5018 34.5 26.5429 34.4951 26.9293 34.4754C28.0121 34.4244 28.6409 34.34 29.3362 34.1603C30.2807 33.918 31.161 33.4724 31.9155 32.8546C32.67 32.2368 33.2806 31.4617 33.7046 30.5834C34.139 29.6873 34.3592 28.8158 34.4589 27.5512C34.4806 27.2755 34.4897 22.8796 34.4897 18.4895C34.4897 14.0988 34.4798 9.71095 34.4582 9.43523C34.3573 8.1502 34.137 7.28613 33.6886 6.37282C33.3207 5.62519 32.9121 5.06686 32.319 4.49598C31.2607 3.4847 29.9662 2.86926 28.4234 2.64672C27.6759 2.53865 27.527 2.50665 23.7025 2.5H18.4949Z" fill="url(#paint0_radial_403_78)"/>
<path d="M18.4949 2.5C11.815 2.5 9.86145 2.50689 9.4817 2.5384C8.11088 2.65238 7.25787 2.86828 6.32857 3.33109C5.6124 3.68681 5.04758 4.09915 4.49015 4.67717C3.47496 5.73129 2.85969 7.02814 2.63696 8.56968C2.52867 9.31805 2.49717 9.47068 2.49077 13.2933C2.48831 14.5675 2.49077 16.2444 2.49077 18.4937C2.49077 25.17 2.49815 27.1221 2.53015 27.5013C2.6409 28.8355 2.85009 29.675 3.29308 30.5932C4.13969 32.3509 5.75662 33.6704 7.66149 34.1627C8.32106 34.3326 9.04954 34.4261 9.98475 34.4705C10.381 34.4877 14.4196 34.5 18.4607 34.5C22.5018 34.5 26.5429 34.4951 26.9293 34.4754C28.0121 34.4244 28.6409 34.34 29.3362 34.1603C30.2807 33.918 31.161 33.4724 31.9155 32.8546C32.67 32.2368 33.2806 31.4617 33.7046 30.5834C34.139 29.6873 34.3592 28.8158 34.4589 27.5512C34.4806 27.2755 34.4897 22.8796 34.4897 18.4895C34.4897 14.0988 34.4798 9.71095 34.4582 9.43523C34.3573 8.1502 34.137 7.28613 33.6886 6.37282C33.3207 5.62519 32.9121 5.06686 32.319 4.49598C31.2607 3.4847 29.9662 2.86926 28.4234 2.64672C27.6759 2.53865 27.527 2.50665 23.7025 2.5H18.4949Z" fill="url(#paint1_radial_403_78)"/>
<path d="M18.4903 8.1C15.6658 8.1 15.3114 8.11235 14.202 8.16284C13.0949 8.21354 12.3391 8.38882 11.6779 8.646C10.9938 8.91164 10.4136 9.26697 9.83554 9.84525C9.25704 10.4233 8.9017 11.0036 8.6352 11.6874C8.37737 12.3488 8.20187 13.1048 8.15204 14.2115C8.10264 15.3209 8.08964 15.6755 8.08964 18.5C8.08964 21.3245 8.1022 21.6779 8.15247 22.7872C8.20339 23.8944 8.37867 24.6501 8.63564 25.3114C8.90149 25.9954 9.25682 26.5756 9.8351 27.1537C10.413 27.7322 10.9932 28.0884 11.6768 28.354C12.3385 28.6112 13.0944 28.7865 14.2014 28.8372C15.3107 28.8877 15.665 28.9 18.4892 28.9C21.3139 28.9 21.6673 28.8877 22.7766 28.8372C23.8838 28.7865 24.6404 28.6112 25.3021 28.354C25.9859 28.0884 26.5652 27.7322 27.1431 27.1537C27.7216 26.5756 28.0769 25.9954 28.3434 25.3116C28.5991 24.6501 28.7746 23.8941 28.8266 22.7874C28.8764 21.6781 28.8894 21.3245 28.8894 18.5C28.8894 15.6755 28.8764 15.3211 28.8266 14.2117C28.7746 13.1046 28.5991 12.3488 28.3434 11.6876C28.0769 11.0036 27.7216 10.4233 27.1431 9.84525C26.5646 9.26675 25.9861 8.91142 25.3014 8.646C24.6384 8.38882 23.8823 8.21354 22.7751 8.16284C21.6658 8.11235 21.3126 8.1 18.4873 8.1H18.4903ZM17.5573 9.97417C17.8342 9.97374 18.1432 9.97417 18.4903 9.97417C21.2671 9.97417 21.5962 9.98414 22.6928 10.034C23.7068 10.0803 24.2571 10.2498 24.6237 10.3921C25.109 10.5806 25.455 10.806 25.8188 11.17C26.1828 11.534 26.4081 11.8806 26.5971 12.366C26.7394 12.7321 26.9091 13.2825 26.9552 14.2965C27.0051 15.3928 27.0159 15.7221 27.0159 18.4976C27.0159 21.2731 27.0051 21.6025 26.9552 22.6988C26.9089 23.7128 26.7394 24.2631 26.5971 24.6293C26.4086 25.1146 26.1828 25.4602 25.8188 25.824C25.4548 26.188 25.1092 26.4133 24.6237 26.6018C24.2575 26.7448 23.7068 26.9138 22.6928 26.9602C21.5964 27.01 21.2671 27.0209 18.4903 27.0209C15.7133 27.0209 15.3842 27.01 14.2878 26.9602C13.2738 26.9134 12.7235 26.744 12.3567 26.6016C11.8713 26.4131 11.5247 26.1878 11.1607 25.8238C10.7967 25.4598 10.5713 25.114 10.3824 24.6284C10.2401 24.2623 10.0704 23.7119 10.0243 22.6979C9.97442 21.6016 9.96445 21.2723 9.96445 18.495C9.96445 15.7178 9.97442 15.3902 10.0243 14.2939C10.0706 13.2799 10.2401 12.7295 10.3824 12.3629C10.5709 11.8776 10.7967 11.5309 11.1607 11.1669C11.5247 10.8029 11.8713 10.5776 12.3567 10.3887C12.7233 10.2457 13.2738 10.0767 14.2878 10.0301C15.2472 9.98674 15.619 9.97374 17.5573 9.97157V9.97417ZM24.0417 11.701C23.7949 11.701 23.5536 11.7742 23.3483 11.9114C23.1431 12.0485 22.9831 12.2434 22.8887 12.4715C22.7942 12.6996 22.7695 12.9505 22.8177 13.1926C22.8659 13.4347 22.9848 13.6571 23.1594 13.8316C23.334 14.0061 23.5564 14.125 23.7985 14.1731C24.0406 14.2212 24.2916 14.1964 24.5196 14.1019C24.7476 14.0074 24.9425 13.8473 25.0796 13.642C25.2167 13.4367 25.2898 13.1954 25.2897 12.9486C25.2897 12.2596 24.7307 11.7006 24.0417 11.7006V11.701ZM18.4903 13.1592C15.5408 13.1592 13.1495 15.5505 13.1495 18.5C13.1495 21.4495 15.5408 23.8398 18.4903 23.8398C21.4398 23.8398 23.8305 21.4495 23.8305 18.5C23.8305 15.5505 21.4396 13.1592 18.4901 13.1592H18.4903ZM18.4903 15.0333C20.4048 15.0333 21.957 16.5853 21.957 18.5C21.957 20.4145 20.4048 21.9667 18.4903 21.9667C16.5756 21.9667 15.0236 20.4145 15.0236 18.5C15.0236 16.5853 16.5756 15.0333 18.4903 15.0333V15.0333Z" fill="white"/>
</g>
<defs>
<radialGradient id="paint0_radial_403_78" cx="0" cy="0" r="1" gradientUnits="userSpaceOnUse" gradientTransform="translate(10.9897 36.9647) rotate(-90) scale(31.7144 29.4969)">
<stop stop-color="#FFDD55"/>
<stop offset="0.1" stop-color="#FFDD55"/>
<stop offset="0.5" stop-color="#FF543E"/>
<stop offset="1" stop-color="#C837AB"/>
</radialGradient>
<radialGradient id="paint1_radial_403_78" cx="0" cy="0" r="1" gradientUnits="userSpaceOnUse" gradientTransform="translate(-2.87049 4.80523) rotate(78.6806) scale(14.1765 58.4359)">
<stop stop-color="#3771C8"/>
<stop offset="0.128" stop-color="#3771C8"/>
<stop offset="1" stop-color="#6600FF" stop-opacity="0"/>
</radialGradient>
</defs>
</svg>
