<svg width="37" height="37" viewBox="0 0 37 37" fill="none" xmlns="http://www.w3.org/2000/svg">
<path d="M18.4987 3.08325C10.0195 3.08325 3.08203 10.0208 3.08203 18.4999C3.08203 26.9791 10.0195 33.9166 18.4987 33.9166C26.9779 33.9166 33.9154 26.9791 33.9154 18.4999C33.9154 10.0208 26.9779 3.08325 18.4987 3.08325Z" fill="#0288D1"/>
<path d="M13.8763 14.6458H10.793V26.2083H13.8763V14.6458Z" fill="white"/>
<path d="M12.3346 13.1041C11.4096 13.1041 10.793 12.4103 10.793 11.5624C10.793 10.7145 11.4096 10.0208 12.3346 10.0208C13.2596 10.0208 13.8763 10.7145 13.8763 11.5624C13.8763 12.4103 13.2596 13.1041 12.3346 13.1041Z" fill="white"/>
<path d="M26.9792 18.8854C26.9792 16.5729 25.0521 14.6458 22.7396 14.6458C21.275 14.6458 20.0417 15.3396 19.2708 16.4188V14.6458H16.1875V26.2083H19.2708V20.0417C19.2708 18.7313 20.2729 17.7292 21.5833 17.7292C22.8938 17.7292 23.8958 18.7313 23.8958 20.0417V26.2083H26.9792C26.9792 26.2083 26.9792 19.1938 26.9792 18.8854Z" fill="white"/>
</svg>
