<?xml version="1.0" encoding="utf-8"?>
<svg viewBox="0 0 500 500" xmlns="http://www.w3.org/2000/svg">
  <g id="Group_4" data-name="Group 4" transform="matrix(1, 0, 0, 1, -208.075134, -146.101028)">
    <path id="Path_42-86" data-name="Path 42" d="M460.947,471.93a94.96,94.96,0,0,1-95-95c0-.2,0-.408.012-.607.291-52.025,42.9-94.393,94.988-94.393a95,95,0,1,1,0,190Zm0-188a93.2,93.2,0,0,0-92.99,92.456c-.011.212-.01.383-.01.544a93.012,93.012,0,1,0,93-93Z" transform="translate(-0.018 0.07)" fill="#3f3d56"/>
    <path id="Path_43-87" data-name="Path 43" d="M503.97,381.529l-65.022-37.541a2,2,0,0,0-3,1.732V420.8a2,2,0,0,0,3,1.732l65.022-37.541a2,2,0,0,0,0-3.464l-65.022-37.541a2,2,0,0,0-3,1.732V420.8a2,2,0,0,0,3,1.732l65.022-37.541a2,2,0,0,0,0-3.464Z" transform="translate(-0.018 -6.721)" style="fill: rgb(0, 191, 255);"/>
    <path id="Path_54-88" data-name="Path 54" d="M757.569,743.732H0v-2.181H757.964Z" transform="translate(221 78)" fill="#3f3d56"/>
  </g>
</svg>