<svg width="37" height="37" viewBox="0 0 37 37" fill="none" xmlns="http://www.w3.org/2000/svg">
<path d="M18.4987 3.08325C10.0195 3.08325 3.08203 10.0208 3.08203 18.4999C3.08203 26.9791 10.0195 33.9166 18.4987 33.9166C26.9779 33.9166 33.9154 26.9791 33.9154 18.4999C33.9154 10.0208 26.9779 3.08325 18.4987 3.08325Z" fill="#03A9F4"/>
<path d="M27.75 13.1812C27.0562 13.4896 26.2083 13.7979 25.4375 13.875C26.2083 13.4125 27.4417 12.4104 27.75 11.5625C26.9792 12.025 25.6688 12.4875 24.8208 12.6417C24.1271 11.8708 23.125 11.5625 22.0458 11.5625C19.9646 11.5625 18.5 13.3354 18.5 15.4167V16.9583C15.4167 16.9583 12.4104 14.6458 10.5604 12.3333C10.2521 12.8729 10.0208 13.5667 10.0208 14.2604C10.0208 15.6479 11.3312 17.1125 12.3333 17.7292C11.7167 17.7292 10.5604 17.2667 10.0208 16.9583C10.0208 16.9583 10.0208 16.9583 10.0208 17.0354C10.0208 18.8854 11.3312 20.1187 13.0271 20.4271C12.7187 20.5042 12.3333 20.8125 10.8688 20.8125C11.3313 22.2771 13.7979 23.125 15.4167 23.125C14.1062 24.1271 11.7937 24.6667 10.0208 24.6667C9.7125 24.6667 9.55833 24.6667 9.25 24.6667C10.9458 25.7458 13.2583 26.2083 15.4167 26.2083C22.4312 26.2083 26.2083 20.8896 26.2083 15.8792C26.2083 15.725 26.2083 15.1854 26.2083 15.0312C26.9792 14.4917 27.2104 13.9521 27.75 13.1812Z" fill="white"/>
</svg>
